<svg width="184" height="52" viewBox="0 0 184 52" fill="none" xmlns="http://www.w3.org/2000/svg">
<path fill-rule="evenodd" clip-rule="evenodd" d="M50.0373 10.3638C50.0373 5.00806 45.7324 0.666867 40.4207 0.666504C35.109 0.666867 30.8027 5.00806 30.8027 10.3638C30.798 12.8803 31.7709 15.3002 33.516 17.1132L31.0493 20.8585L23.1187 8.6065C22.9802 8.39286 22.7889 8.21865 22.5633 8.10079C22.3376 7.98293 22.0854 7.92544 21.8309 7.93389C21.5765 7.94235 21.3286 8.01646 21.1113 8.14904C20.8939 8.28161 20.7146 8.46814 20.5907 8.6905L6.78667 33.4398H1.48C0.662667 33.4398 0 34.1065 0 34.9305C0 35.7545 0.662667 36.4212 1.47867 36.4212H50.54C50.5551 36.4214 50.5702 36.4214 50.5853 36.4212H56.7347C57.552 36.4212 58.2147 35.7545 58.2147 34.9305C58.2147 34.1065 57.552 33.4398 56.7347 33.4398H51.428L43.676 19.4905C45.5448 18.806 47.1578 17.563 48.2958 15.9303C49.4339 14.2975 50.0419 12.3541 50.0373 10.3638ZM39.192 33.4398L32.808 23.5772L38.0947 15.5492L48.0373 33.4398H39.192ZM21.972 12.2932L35.6613 33.4398H10.1787L21.972 12.2932ZM45.8885 14.5147C46.7852 13.3169 47.268 11.86 47.264 10.3638C47.264 6.55184 44.2 3.4625 40.42 3.4625C36.64 3.4625 33.5747 6.55184 33.5747 10.3638C33.5716 11.9432 34.11 13.4759 35.1 14.7065L36.9693 11.8665C37.109 11.6546 37.301 11.4824 37.5267 11.3664C37.7523 11.2503 38.0041 11.1944 38.2577 11.2041C38.5113 11.2137 38.7581 11.2886 38.9743 11.4214C39.1905 11.5543 39.3688 11.7406 39.492 11.9625L42.2933 17.0038C43.73 16.5861 44.9919 15.7125 45.8885 14.5147Z" fill="white"/>
<path d="M11.3493 42.3865C11.3493 41.5638 12.0107 40.8971 12.8253 40.8971H45.3867C46.2013 40.8971 46.8627 41.5638 46.8627 42.3865C46.8627 43.2078 46.2013 43.8745 45.3853 43.8745H12.8253C12.0107 43.8745 11.3493 43.2091 11.3493 42.3865Z" fill="white"/>
<path d="M22.696 49.8425C22.696 49.0185 23.3587 48.3505 24.176 48.3505H34.036C34.8533 48.3505 35.516 49.0185 35.516 49.8425C35.516 50.6665 34.8533 51.3331 34.0373 51.3331H24.176C23.3587 51.3331 22.696 50.6651 22.696 49.8425Z" fill="white"/>
<path fill-rule="evenodd" clip-rule="evenodd" d="M160.035 23.1612C158.725 21.4945 156.764 20.5972 154.239 20.5972C150.26 20.5972 146.173 23.9678 146.173 29.6452C146.173 35.3225 150.26 38.6932 154.239 38.6932C156.764 38.6932 158.725 37.8132 160.035 36.1292V37.5398C160.035 40.7998 158.072 42.7785 154.512 42.7785C152.387 42.7785 150.369 42.0812 148.608 41.0012L147.227 44.2438C149.061 45.5625 151.913 46.2772 154.512 46.2772C160.325 46.2772 163.849 42.8892 163.849 37.3745V21.0545H160.035V23.1612ZM150.079 29.6452C150.079 26.6785 152.004 24.2052 155.219 24.2052C158.289 24.2052 160.361 26.5692 160.361 29.6452C160.361 32.7225 158.289 35.0852 155.219 35.0852C152.004 35.0852 150.079 32.5958 150.079 29.6452Z" fill="white"/>
<path fill-rule="evenodd" clip-rule="evenodd" d="M139.12 23.1798C137.921 21.6225 136.123 20.5972 133.652 20.5972C128.785 20.5972 124.951 24.4612 124.951 29.8278C124.951 35.1945 128.784 39.0598 133.652 39.0598C136.124 39.0598 137.921 38.0532 139.12 36.4958V38.6025H142.917V21.0558H139.12V23.1798ZM128.856 29.8278C128.856 26.7518 130.837 24.2052 134.107 24.2052C137.249 24.2052 139.357 26.6225 139.357 29.8278C139.357 33.0332 137.249 35.4518 134.107 35.4518C130.837 35.4518 128.856 32.9052 128.856 29.8278Z" fill="white"/>
<path fill-rule="evenodd" clip-rule="evenodd" d="M183.999 29.8105C183.981 24.3345 180.639 20.5972 175.769 20.5972C170.647 20.5972 167.104 24.3345 167.104 29.8292C167.104 35.3972 170.792 39.0612 176.005 39.0612C178.64 39.0612 181.037 38.4212 183.163 36.5892L181.273 33.8585C179.839 35.0118 177.985 35.7092 176.241 35.7092C173.771 35.7092 171.573 34.3892 171.064 31.2385H183.927C183.963 30.7998 183.999 30.3052 183.999 29.8105ZM171.083 28.3265C171.483 25.7625 172.989 24.0038 175.696 24.0038C178.113 24.0038 179.693 25.5972 180.111 28.3265H171.083Z" fill="white"/>
<path d="M85.7753 31.2743L78.3813 12.9586H72.0773V38.6026H76.184V17.7026L83.612 36.0932H87.936L95.3667 17.5012V38.6026H99.4733V12.9586H93.168L85.7753 31.2743Z" fill="white"/>
<path d="M108.271 21.0559V38.6026H104.456V21.0559H108.271Z" fill="white"/>
<path d="M124.513 21.0919C124.513 21.092 124.513 21.0919 124.513 21.0919V21.0919Z" fill="white"/>
<path d="M121.588 20.5986C122.751 20.5986 123.641 20.744 124.513 21.0919L123.604 24.8812C122.805 24.4599 121.643 24.2399 120.716 24.2399C118.3 24.2399 116.575 25.9626 116.575 28.9466V38.5999H112.777V21.0532H116.537V23.0332C117.681 21.3666 119.463 20.5986 121.588 20.5986Z" fill="white"/>
<path d="M106.344 12.2812C107.852 12.2812 109.033 13.4719 109.033 14.9919C109.033 16.5119 107.852 17.6666 106.344 17.6666C104.837 17.6666 103.691 16.5119 103.691 14.9919C103.691 13.4719 104.837 12.2812 106.344 12.2812Z" fill="white"/>
</svg>
