<svg width="20" height="21" viewBox="0 0 20 21" fill="none" xmlns="http://www.w3.org/2000/svg">
<path fill-rule="evenodd" clip-rule="evenodd" d="M10.0004 20.1004C15.3023 20.1004 19.6004 15.8023 19.6004 10.5004C19.6004 5.19846 15.3023 0.900391 10.0004 0.900391C4.69846 0.900391 0.400391 5.19846 0.400391 10.5004C0.400391 15.8023 4.69846 20.1004 10.0004 20.1004ZM14.4489 8.94892C14.9175 8.48029 14.9175 7.72049 14.4489 7.25186C13.9803 6.78323 13.2205 6.78323 12.7519 7.25186L8.80039 11.2033L7.24892 9.65186C6.78029 9.18323 6.02049 9.18323 5.55186 9.65186C5.08323 10.1205 5.08323 10.8803 5.55186 11.3489L7.95186 13.7489C8.42049 14.2175 9.18029 14.2175 9.64892 13.7489L14.4489 8.94892Z" fill="white"/>
</svg>
