<svg width="115" height="32" viewBox="0 0 115 32" fill="currentColor" xmlns="http://www.w3.org/2000/svg">
<path d="M2.11797e-06 20.8175C2.11797e-06 20.8175 -0.00020504 20.8167 1.15211 20.502C2.30442 20.1874 2.30428 20.1868 2.30428 20.1868L2.30509 20.1901L2.30987 20.2091C2.31444 20.2271 2.32177 20.2557 2.33188 20.2941C2.35211 20.3707 2.38344 20.4864 2.4261 20.635C2.51149 20.9324 2.64179 21.3602 2.81859 21.8704C3.17412 22.8963 3.70859 24.2289 4.42998 25.4992C5.93385 28.1475 7.89316 29.9633 10.4052 29.3547C10.9094 29.2325 11.5609 28.8106 12.3389 27.9488C13.1013 27.1043 13.8938 25.9397 14.695 24.5271C16.2961 21.7041 17.844 18.0489 19.2025 14.3942C20.5574 10.749 21.7078 7.14814 22.5202 4.45515C22.9261 3.10967 23.2469 1.99318 23.466 1.21406C23.5756 0.824551 23.6596 0.519502 23.7161 0.312477C23.7444 0.208968 23.7657 0.129976 23.7799 0.0771949L23.7959 0.017898L23.8006 0L24.9464 0.340465C26.0919 0.68173 26.0918 0.68231 26.0918 0.68231L26.0858 0.70454L26.0688 0.768072C26.0538 0.823719 26.0317 0.905667 26.0026 1.01222C25.9444 1.22532 25.8585 1.53687 25.7471 1.93327C25.5242 2.72598 25.1987 3.85855 24.7874 5.22205C23.9653 7.94703 22.7974 11.6038 21.4171 15.3172C20.0404 19.0211 18.4362 22.8256 16.7353 25.8246C15.8856 27.3229 14.9895 28.6599 14.0593 29.6903C13.1447 30.7033 12.0995 31.5295 10.9361 31.8114C6.77821 32.8188 3.97823 29.5942 2.39031 26.7979C1.56581 25.346 0.971257 23.8553 0.58425 22.7386C0.389777 22.1774 0.245416 21.7039 0.148974 21.368C0.100712 21.1999 0.0643337 21.0658 0.0395783 20.972C0.0271976 20.925 0.0177143 20.8881 0.0110967 20.862L0.0033119 20.831L0.00102163 20.8217L2.11797e-06 20.8175Z" />
<path d="M5.90822 20.8175C5.90822 20.8175 5.90801 20.8167 7.06033 20.502C8.21264 20.1874 8.2125 20.1868 8.2125 20.1868L8.2133 20.1901L8.21809 20.2091C8.22266 20.2271 8.22999 20.2557 8.2401 20.2941C8.26033 20.3707 8.29166 20.4864 8.33432 20.635C8.41971 20.9324 8.55 21.3602 8.7268 21.8704C9.08234 22.8963 9.61681 24.2289 10.3382 25.4992C11.8421 28.1475 13.8014 29.9633 16.3135 29.3547C16.8176 29.2325 17.4691 28.8106 18.2471 27.9488C19.0095 27.1043 19.802 25.9397 20.6032 24.5271C22.2043 21.7041 23.7522 18.0489 25.1107 14.3942C26.4656 10.749 27.616 7.14814 28.4284 4.45515C28.8343 3.10967 29.1552 1.99318 29.3742 1.21406C29.4838 0.824551 29.5678 0.519502 29.6243 0.312477C29.6526 0.208968 29.674 0.129976 29.6882 0.0771949L29.7041 0.017898L29.7089 0L30.8546 0.340465C32.0001 0.68173 32 0.68231 32 0.68231L31.9941 0.70454L31.977 0.768072C31.962 0.823719 31.9399 0.905667 31.9108 1.01222C31.8526 1.22532 31.7668 1.53687 31.6553 1.93327C31.4324 2.72598 31.1069 3.85855 30.6956 5.22205C29.8735 7.94703 28.7056 11.6038 27.3253 15.3172C25.9486 19.0211 24.3445 22.8256 22.6436 25.8246C21.7938 27.3229 20.8977 28.6599 19.9675 29.6903C19.0529 30.7033 18.0077 31.5295 16.8443 31.8114C12.6864 32.8188 9.88645 29.5942 8.29853 26.7979C7.47403 25.346 6.87947 23.8553 6.49247 22.7386C6.29799 22.1774 6.15363 21.7039 6.05719 21.368C6.00893 21.1999 5.97255 21.0658 5.9478 20.972C5.93542 20.925 5.92593 20.8881 5.91931 20.862L5.91153 20.831L5.90924 20.8217L5.90822 20.8175Z" />
<path d="M46.7469 24.1192L42.666 8.59348H45.4345L48.3464 20.6749L51.7711 8.66766H54.4268L57.6771 20.7173L60.6506 8.59348H63.4191L59.2151 24.1192H56.3339L53.1246 12.7478L49.6076 24.1192H46.7469Z" />
<path d="M65.0289 24.1192V12.4723H67.7153V24.1192H65.0289ZM65.0289 10.7766V8.40272H67.7255V10.7766H65.0289Z" />
<path d="M74.7184 24.3418C73.2488 24.3418 72.0935 23.7836 71.2527 22.6673C70.412 21.551 69.9916 20.0603 69.9916 18.1951C69.9916 16.3864 70.4085 14.9345 71.2425 13.8394C72.0833 12.7372 73.2385 12.1861 74.7082 12.1861C76.3077 12.1861 77.439 12.7725 78.1021 13.9454C78.0337 13.253 77.9995 12.5853 77.9995 11.9424V8.18016L80.686 8V24.1192H78.3584L78.0611 22.5296C77.9449 22.7203 77.8355 22.8863 77.7329 23.0277C77.6372 23.1619 77.4937 23.3209 77.3023 23.5046C77.1109 23.6812 76.9024 23.826 76.6768 23.9391C76.4581 24.045 76.1778 24.1369 75.8361 24.2146C75.5011 24.2994 75.1286 24.3418 74.7184 24.3418ZM75.3541 22.2328C77.1588 22.2328 78.0747 20.9646 78.1021 18.4282C78.1021 16.994 77.8697 15.9483 77.4048 15.2913C76.94 14.6342 76.2462 14.3057 75.3234 14.3057C74.5168 14.3057 73.8708 14.6413 73.3855 15.3125C72.907 15.9766 72.6677 16.9587 72.6677 18.2587C72.6677 19.5516 72.907 20.5372 73.3855 21.2154C73.8708 21.8937 74.527 22.2328 75.3541 22.2328Z" />
<path d="M85.6999 29.3333L85.5461 27.0866H86.9098C88.4889 27.0866 89.5928 26.8676 90.2217 26.4295C90.8506 25.9986 91.165 25.2037 91.165 24.045C91.165 23.5717 91.1445 23.0594 91.1035 22.5084C90.9258 22.7627 90.7549 22.9747 90.5908 23.1442C90.4336 23.3067 90.232 23.4692 89.9859 23.6317C89.7466 23.7942 89.4561 23.9179 89.1143 24.0026C88.7794 24.0804 88.3966 24.1192 87.9659 24.1192C86.4758 24.1192 85.2488 23.5646 84.2849 22.4554C83.3279 21.3461 82.8494 19.9154 82.8494 18.1633C82.8494 17.2307 82.9827 16.3828 83.2493 15.6198C83.5159 14.8497 83.8782 14.2174 84.3362 13.7228C84.7942 13.2282 85.3205 12.8503 85.9152 12.5888C86.5168 12.3204 87.1559 12.1861 87.8326 12.1861C89.3433 12.1861 90.4678 12.7549 91.206 13.8924L91.3906 12.4723H93.7899V23.2926C93.7899 23.8719 93.7626 24.3912 93.7079 24.8505C93.6532 25.3168 93.5575 25.7619 93.4208 26.1858C93.2841 26.6168 93.1029 26.9912 92.8773 27.3092C92.6586 27.6271 92.3818 27.9168 92.0468 28.1782C91.7119 28.4396 91.3154 28.6515 90.8574 28.814C90.4063 28.9836 89.8799 29.1108 89.2784 29.1956C88.6768 29.2874 88.0001 29.3333 87.2482 29.3333H85.6999ZM88.3966 22.1798C90.249 22.1798 91.1855 20.8975 91.206 18.3328V17.9301C91.1924 16.7785 90.9599 15.8883 90.5088 15.2595C90.0576 14.6307 89.398 14.3127 88.5299 14.3057C87.5455 14.3057 86.8004 14.6554 86.2946 15.3549C85.7888 16.0472 85.5359 16.9834 85.5359 18.1633C85.5359 19.3008 85.7888 20.2546 86.2946 21.0247C86.8073 21.7948 87.5079 22.1798 88.3966 22.1798Z" />
<path d="M101.654 24.3418C99.8429 24.3418 98.4313 23.8048 97.4196 22.7309C96.4148 21.6499 95.9124 20.1592 95.9124 18.2587C95.9124 16.4076 96.3875 14.9345 97.3376 13.8394C98.2878 12.7443 99.5831 12.1932 101.224 12.1861C102.775 12.1861 103.978 12.6878 104.833 13.691C105.694 14.6943 106.125 16.0261 106.125 17.6864C106.125 17.8065 106.121 18.0008 106.115 18.2692C106.115 18.5377 106.115 18.7356 106.115 18.8627H98.6193C98.6466 19.9508 98.9337 20.7951 99.4806 21.3956C100.034 21.9891 100.793 22.2858 101.757 22.2858C102.987 22.2858 104.17 21.9537 105.305 21.2896L105.684 23.2608C104.556 23.9815 103.213 24.3418 101.654 24.3418ZM98.6706 17.1141H103.592C103.592 16.1674 103.384 15.4396 102.967 14.9309C102.55 14.4223 101.972 14.1679 101.234 14.1679C100.544 14.1679 99.9591 14.4152 99.4806 14.9098C99.0089 15.4043 98.7389 16.1391 98.6706 17.1141Z" />
<path d="M112.82 24.2782C112.055 24.2782 111.416 24.1863 110.903 24.0026C110.397 23.8119 110.001 23.5152 109.714 23.1124C109.426 22.7097 109.221 22.2364 109.098 21.6923C108.982 21.1412 108.924 20.463 108.924 19.6576V14.1573H107.078L107.181 12.6524L109.109 12.4723L109.97 9.31412L111.61 9.30353V12.4723H114.41V14.1573H111.61V19.7105C111.61 20.5937 111.734 21.2225 111.98 21.597C112.226 21.9714 112.68 22.1586 113.343 22.1586C113.733 22.1586 114.15 22.1233 114.594 22.0527L114.666 24.045C114.652 24.045 114.567 24.0627 114.41 24.098C114.259 24.1263 114.112 24.151 113.969 24.1722C113.832 24.2005 113.654 24.2252 113.436 24.2464C113.217 24.2676 113.012 24.2782 112.82 24.2782Z" />
</svg>
