<svg width="33" height="30" viewBox="0 0 33 30" fill="currentColor" xmlns="http://www.w3.org/2000/svg">
<path d="M13.9854 27.4376C14.1799 26.9367 14.2727 26.4021 14.2582 25.865C14.2879 24.3764 14.6857 22.9184 15.4162 21.621C16.1449 20.3258 17.1841 19.2321 18.4402 18.438C18.9054 18.1885 19.315 17.8473 19.6445 17.4349C19.9739 17.0225 20.2162 16.5476 20.3568 16.0389C20.4974 15.5301 20.5334 14.9982 20.4624 14.4751C20.3915 13.9521 20.2152 13.4489 19.9442 12.996C19.5822 12.391 19.0612 11.895 18.4402 11.565C18.0842 11.318 17.7422 11.052 17.4162 10.767L16.5992 9.967C15.1022 8.3932 14.2627 6.30708 14.2522 4.135C14.2677 3.59777 14.1754 3.06288 13.9808 2.56188C13.7862 2.06089 13.4933 1.60395 13.1192 1.218C12.7469 0.832488 12.3006 0.52595 11.8072 0.316684C11.3138 0.107418 10.7832 -0.000286365 10.2472 5.71818e-07C9.71156 0.000756001 9.18148 0.108938 8.68834 0.318146C8.19521 0.527354 7.74904 0.833339 7.37624 1.218C7.00286 1.60462 6.71034 2.06183 6.5158 2.56287C6.32126 3.06391 6.22859 3.59872 6.24324 4.136C6.25197 4.83344 6.44407 5.5163 6.80024 6.116C7.15518 6.71469 7.66193 7.20902 8.26924 7.549C10.7282 9.105 12.4392 12.08 12.4392 15.006C12.4332 17.1592 11.6097 19.2298 10.1352 20.799L8.27524 22.451C7.66824 22.79 7.16124 23.284 6.80524 23.884C6.44824 24.483 6.25724 25.167 6.24824 25.865C6.23294 26.4022 6.3253 26.9371 6.51989 27.438C6.71447 27.939 7.00734 28.396 7.38124 28.782C7.75367 29.1674 8.19991 29.4739 8.69333 29.6832C9.18676 29.8924 9.71727 30.0002 10.2532 30C10.7891 29.9994 11.3194 29.8913 11.8127 29.682C12.306 29.4728 12.7523 29.1668 13.1252 28.782C13.4984 28.3955 13.7909 27.9384 13.9854 27.4376Z"/>
<path d="M19.4172 6.36C18.9762 5.698 18.7412 4.919 18.7412 4.123C18.7419 3.05673 19.1643 2.034 19.9162 1.278C20.57 0.62024 21.4324 0.210504 22.3553 0.119089C23.2782 0.0276751 24.2041 0.260281 24.9742 0.777001C25.6339 1.2199 26.1475 1.84836 26.4502 2.583C26.753 3.31848 26.832 4.12692 26.6774 4.9071C26.5228 5.68728 26.1415 6.40452 25.5812 6.969C25.0226 7.53193 24.309 7.91563 23.5313 8.07112C22.7537 8.22661 21.9473 8.14685 21.2152 7.842C20.4824 7.53685 19.8567 7.02107 19.4172 6.36Z"/>
<path d="M20.5222 22.518C21.1812 22.076 21.9562 21.84 22.7482 21.84V21.838C23.2747 21.8386 23.7959 21.9432 24.2819 22.1457C24.7678 22.3482 25.2091 22.6446 25.5802 23.018C26.2362 23.6779 26.6442 24.544 26.7353 25.47C26.8264 26.3959 26.595 27.3249 26.0802 28.1C25.6408 28.762 25.0147 29.2785 24.2812 29.584C23.5491 29.8888 22.7428 29.9686 21.9651 29.8131C21.1875 29.6576 20.4738 29.2739 19.9152 28.711C19.3547 28.1464 18.9733 27.429 18.8187 26.6486C18.6641 25.8683 18.7433 25.0596 19.0462 24.324C19.349 23.5894 19.8626 22.9609 20.5222 22.518Z"/>
<path d="M32.3252 12.758C32.7651 13.4198 33.0001 14.1974 33.0002 14.9931C32.9996 16.0597 32.5772 17.0827 31.8252 17.839C31.454 18.2122 31.0127 18.5086 30.5268 18.7111C30.0408 18.9136 29.5197 19.0182 28.9932 19.019C28.2004 19.019 27.4255 18.783 26.7672 18.341C26.1076 17.8981 25.5939 17.2696 25.2912 16.535C24.9883 15.7994 24.9091 14.9907 25.0637 14.2104C25.2183 13.43 25.5997 12.7126 26.1602 12.148C26.7189 11.5849 27.4328 11.2011 28.2106 11.0456C28.9885 10.8901 29.795 10.9699 30.5272 11.275C31.2602 11.5804 31.886 12.0966 32.3252 12.758Z"/>
<path d="M1.78124 11.647C2.44024 11.205 3.21424 10.969 4.00724 10.969C4.53358 10.9701 5.05455 11.075 5.54032 11.2776C6.02609 11.4803 6.46714 11.7767 6.83824 12.15C7.49385 12.8097 7.90166 13.6754 7.99276 14.601C8.08385 15.5265 7.85266 16.4552 7.33824 17.23C6.89891 17.8914 6.27315 18.4075 5.54024 18.713C4.80788 19.0164 4.00191 19.0953 3.22459 18.9399C2.44727 18.7845 1.73364 18.4017 1.17424 17.84C0.613941 17.2755 0.232629 16.5583 0.0780521 15.7781C-0.0765252 14.9979 0.00250229 14.1895 0.305239 13.454C0.607831 12.719 1.12146 12.0902 1.78124 11.647Z"/>
</svg>
