<svg width="16" height="16" viewBox="0 0 16 16" fill="none" xmlns="http://www.w3.org/2000/svg">
<path d="M14.8017 2.75781H1.19828C0.536469 2.75781 0 3.29428 0 3.95609V12.0423C0 12.7041 0.536469 13.2406 1.19828 13.2406H14.8017C15.4635 13.2406 16 12.7041 16 12.0423V3.95609C16 3.29428 15.4635 2.75781 14.8017 2.75781Z" fill="#F5F5F5"/>
<path d="M0.0664062 3.56419H15.9346C15.7722 3.09491 15.3267 2.75781 14.8022 2.75781H1.19878C0.674281 2.75781 0.228813 3.09491 0.0664062 3.56419Z" fill="#FF4B55"/>
<path d="M16 5.98242H0V6.78876H16V5.98242Z" fill="#FF4B55"/>
<path d="M16 4.37109H0V5.17744H16V4.37109Z" fill="#FF4B55"/>
<path d="M0 8.1262C0 8.27855 0.123531 8.40208 0.275875 8.40208H16V7.5957H0V8.1262Z" fill="#FF4B55"/>
<path d="M16 10.8223H0V11.6286H16V10.8223Z" fill="#FF4B55"/>
<path d="M15.9346 12.4336H0.0664062C0.228813 12.9029 0.674312 13.24 1.19878 13.24H14.8022C15.3267 13.24 15.7722 12.9029 15.9346 12.4336Z" fill="#FF4B55"/>
<path d="M16 9.20898H0V10.0153H16V9.20898Z" fill="#FF4B55"/>
<path d="M0.275875 8.40241H7.17244C7.32478 8.40241 7.44831 8.27888 7.44831 8.12654V3.03369C7.44831 2.88131 7.32478 2.75781 7.17244 2.75781H1.19828C0.536469 2.75784 0 3.29431 0 3.95613V8.12654C0 8.27891 0.123531 8.40241 0.275875 8.40241Z" fill="#41479B"/>
<path d="M0.774573 3.39083L0.835635 3.57396L1.02867 3.57543C1.05367 3.57564 1.06401 3.60752 1.04392 3.62236L0.888635 3.73702L0.946885 3.92105C0.954447 3.94486 0.927291 3.96461 0.906948 3.95005L0.749917 3.83783L0.592886 3.95008C0.572542 3.96464 0.545448 3.94489 0.552948 3.92108L0.611198 3.73705L0.455917 3.62239C0.435824 3.60752 0.446167 3.57564 0.471167 3.57546L0.664198 3.57399L0.725261 3.39086C0.733136 3.36711 0.766635 3.36711 0.774573 3.39083Z" fill="#F5F5F5"/>
<path d="M0.774573 4.34784L0.835635 4.53097L1.02867 4.53244C1.05367 4.53265 1.06401 4.5645 1.04392 4.57937L0.888635 4.69406L0.946885 4.8781C0.954447 4.90191 0.927291 4.92166 0.906948 4.9071L0.749917 4.79488L0.592886 4.90713C0.572542 4.92166 0.545448 4.90194 0.552948 4.87813L0.611198 4.69409L0.455917 4.5794C0.435824 4.56453 0.446167 4.53269 0.471167 4.53247L0.664198 4.531L0.725261 4.34787C0.733136 4.32415 0.766635 4.32415 0.774573 4.34784Z" fill="#F5F5F5"/>
<path d="M0.774573 5.30685L0.835635 5.48997L1.02867 5.49144C1.05367 5.49166 1.06401 5.5235 1.04392 5.53838L0.888635 5.65307L0.946885 5.8371C0.954447 5.86091 0.927291 5.88066 0.906948 5.8661L0.749917 5.75388L0.592886 5.86613C0.572542 5.88066 0.545448 5.86097 0.552948 5.83713L0.611198 5.6531L0.455917 5.53841C0.435824 5.52354 0.446167 5.49169 0.471167 5.49147L0.664198 5.49L0.725261 5.30688C0.733136 5.28313 0.766635 5.28313 0.774573 5.30685Z" fill="#F5F5F5"/>
<path d="M0.774573 6.26388L0.835635 6.447L1.02867 6.44847C1.05367 6.44869 1.06401 6.48056 1.04392 6.49541L0.888635 6.61009L0.946885 6.79412C0.954447 6.81794 0.927291 6.83769 0.906948 6.82312L0.749917 6.71091L0.592886 6.82315C0.572542 6.83769 0.545448 6.81797 0.552948 6.79415L0.611198 6.61013L0.455917 6.49544C0.435824 6.48063 0.446167 6.44872 0.471167 6.4485L0.664198 6.44703L0.725261 6.26391C0.733136 6.24016 0.766635 6.24016 0.774573 6.26388Z" fill="#F5F5F5"/>
<path d="M0.774573 7.22284L0.835635 7.40596L1.02867 7.40743C1.05367 7.40765 1.06401 7.4395 1.04392 7.45437L0.888635 7.56906L0.946885 7.75309C0.954447 7.7769 0.927291 7.79665 0.906948 7.78209L0.749917 7.66987L0.592886 7.78212C0.572542 7.79665 0.545448 7.77693 0.552948 7.75312L0.611198 7.56909L0.455917 7.4544C0.435824 7.43953 0.446167 7.40768 0.471167 7.40746L0.664198 7.406L0.725261 7.22287C0.733136 7.19915 0.766635 7.19915 0.774573 7.22284Z" fill="#F5F5F5"/>
<path d="M1.51871 3.85956L1.57978 4.04269L1.77281 4.04416C1.79781 4.04437 1.80815 4.07625 1.78806 4.09109L1.63278 4.20578L1.69103 4.38981C1.69859 4.41362 1.67143 4.43337 1.65109 4.41881L1.49406 4.30656L1.33703 4.41881C1.31668 4.43334 1.28959 4.41362 1.29709 4.38981L1.35534 4.20578L1.20006 4.09109C1.17996 4.07622 1.19031 4.04437 1.21531 4.04416L1.40834 4.04269L1.4694 3.85956C1.47728 3.83588 1.51081 3.83588 1.51871 3.85956Z" fill="#F5F5F5"/>
<path d="M1.51871 4.81857L1.57978 5.0017L1.77281 5.00316C1.79781 5.00338 1.80815 5.03526 1.78806 5.0501L1.63278 5.16479L1.69103 5.34882C1.69859 5.37263 1.67143 5.39238 1.65109 5.37782L1.49406 5.26557L1.33703 5.37782C1.31668 5.39235 1.28959 5.37266 1.29709 5.34882L1.35534 5.16479L1.20006 5.0501C1.17996 5.03529 1.19031 5.00338 1.21531 5.00316L1.40834 5.0017L1.4694 4.81857C1.47728 4.79485 1.51081 4.79485 1.51871 4.81857Z" fill="#F5F5F5"/>
<path d="M1.51871 5.7756L1.57978 5.95873L1.77281 5.9602C1.79781 5.96041 1.80815 5.99226 1.78806 6.00713L1.63278 6.12182L1.69103 6.30585C1.69859 6.32967 1.67143 6.34942 1.65109 6.33485L1.49406 6.2226L1.33703 6.33485C1.31668 6.34939 1.28959 6.32967 1.29709 6.30585L1.35534 6.12182L1.20006 6.00713C1.17996 5.99226 1.19031 5.96041 1.21531 5.9602L1.40834 5.95873L1.4694 5.7756C1.47728 5.75188 1.51081 5.75188 1.51871 5.7756Z" fill="#F5F5F5"/>
<path d="M1.51871 6.73456L1.57978 6.91769L1.77281 6.91916C1.79781 6.91937 1.80815 6.95122 1.78806 6.96609L1.63278 7.08078L1.69103 7.26481C1.69859 7.28862 1.67143 7.30837 1.65109 7.29381L1.49406 7.18156L1.33703 7.29381C1.31668 7.30837 1.28959 7.28862 1.29709 7.26481L1.35534 7.08078L1.20006 6.96609C1.17996 6.95122 1.19031 6.91937 1.21531 6.91916L1.40834 6.91769L1.4694 6.73456C1.47728 6.71088 1.51081 6.71088 1.51871 6.73456Z" fill="#F5F5F5"/>
<path d="M2.2609 3.39084L2.32196 3.57396L2.51499 3.57543C2.53999 3.57565 2.55034 3.60752 2.53024 3.62237L2.37496 3.73702L2.43321 3.92106C2.44078 3.94487 2.41362 3.96462 2.39328 3.95006L2.23624 3.83781L2.07921 3.95006C2.05887 3.96462 2.03178 3.94487 2.03928 3.92106L2.09753 3.73702L1.94225 3.62237C1.92215 3.60749 1.9325 3.57562 1.9575 3.57543L2.15053 3.57396L2.21159 3.39084C2.21946 3.36712 2.25299 3.36712 2.2609 3.39084Z" fill="#F5F5F5"/>
<path d="M2.2609 4.34784L2.32196 4.53097L2.51499 4.53244C2.53999 4.53266 2.55034 4.5645 2.53024 4.57937L2.37496 4.69406L2.43321 4.87809C2.44078 4.90191 2.41362 4.92166 2.39328 4.90709L2.23624 4.79484L2.07921 4.90709C2.05887 4.92162 2.03178 4.90191 2.03928 4.87809L2.09753 4.69406L1.94225 4.57937C1.92215 4.5645 1.9325 4.53266 1.9575 4.53244L2.15053 4.53097L2.21159 4.34784C2.21946 4.32416 2.25299 4.32416 2.2609 4.34784Z" fill="#F5F5F5"/>
<path d="M2.2609 5.30685L2.32196 5.48998L2.51499 5.49145C2.53999 5.49166 2.55034 5.52351 2.53024 5.53838L2.37496 5.65307L2.43321 5.8371C2.44078 5.86091 2.41362 5.88066 2.39328 5.8661L2.23624 5.75385L2.07921 5.8661C2.05887 5.88063 2.03178 5.86094 2.03928 5.8371L2.09753 5.65307L1.94225 5.53838C1.92215 5.52351 1.9325 5.49166 1.9575 5.49145L2.15053 5.48998L2.21159 5.30685C2.21946 5.28313 2.25299 5.28313 2.2609 5.30685Z" fill="#F5F5F5"/>
<path d="M2.2609 6.26388L2.32196 6.44701L2.51499 6.44848C2.53999 6.4487 2.55034 6.48057 2.53024 6.49542L2.37496 6.6101L2.43321 6.79414C2.44078 6.81795 2.41362 6.8377 2.39328 6.82314L2.23624 6.71089L2.07921 6.82314C2.05887 6.83767 2.03178 6.81795 2.03928 6.79414L2.09753 6.6101L1.94225 6.49542C1.92215 6.4806 1.9325 6.4487 1.9575 6.44848L2.15053 6.44701L2.21159 6.26388C2.21946 6.24016 2.25299 6.24016 2.2609 6.26388Z" fill="#F5F5F5"/>
<path d="M2.2609 7.22284L2.32196 7.40597L2.51499 7.40744C2.53999 7.40766 2.55034 7.4395 2.53024 7.45437L2.37496 7.56906L2.43321 7.75309C2.44078 7.77691 2.41362 7.79666 2.39328 7.78209L2.23624 7.66984L2.07921 7.78209C2.05887 7.79662 2.03178 7.77691 2.03928 7.75309L2.09753 7.56906L1.94225 7.45437C1.92215 7.4395 1.9325 7.40766 1.9575 7.40744L2.15053 7.40597L2.21159 7.22284C2.21946 7.19916 2.25299 7.19916 2.2609 7.22284Z" fill="#F5F5F5"/>
<path d="M3.00504 3.85956L3.06611 4.04269L3.25914 4.04416C3.28414 4.04437 3.29448 4.07625 3.27439 4.09109L3.11911 4.20578L3.17736 4.38981C3.18492 4.41362 3.15776 4.43337 3.13742 4.41881L2.98039 4.30656L2.82336 4.41881C2.80301 4.43334 2.77592 4.41362 2.78342 4.38981L2.84167 4.20578L2.68639 4.09109C2.66629 4.07622 2.67664 4.04437 2.70164 4.04416L2.89467 4.04269L2.95573 3.85956C2.96357 3.83588 2.99714 3.83588 3.00504 3.85956Z" fill="#F5F5F5"/>
<path d="M3.00504 4.81857L3.06611 5.0017L3.25914 5.00316C3.28414 5.00338 3.29448 5.03526 3.27439 5.0501L3.11911 5.16479L3.17736 5.34882C3.18492 5.37263 3.15776 5.39238 3.13742 5.37782L2.98039 5.26557L2.82336 5.37782C2.80301 5.39235 2.77592 5.37266 2.78342 5.34882L2.84167 5.16479L2.68639 5.0501C2.66629 5.03529 2.67664 5.00338 2.70164 5.00316L2.89467 5.0017L2.95573 4.81857C2.96357 4.79485 2.99714 4.79485 3.00504 4.81857Z" fill="#F5F5F5"/>
<path d="M3.00504 5.7756L3.06611 5.95873L3.25914 5.9602C3.28414 5.96041 3.29448 5.99226 3.27439 6.00713L3.11911 6.12182L3.17736 6.30585C3.18492 6.32967 3.15776 6.34942 3.13742 6.33485L2.98039 6.2226L2.82336 6.33485C2.80301 6.34939 2.77592 6.32967 2.78342 6.30585L2.84167 6.12182L2.68639 6.00713C2.66629 5.99226 2.67664 5.96041 2.70164 5.9602L2.89467 5.95873L2.95573 5.7756C2.96357 5.75188 2.99714 5.75188 3.00504 5.7756Z" fill="#F5F5F5"/>
<path d="M3.00504 6.73456L3.06611 6.91769L3.25914 6.91916C3.28414 6.91937 3.29448 6.95122 3.27439 6.96609L3.11911 7.08078L3.17736 7.26481C3.18492 7.28862 3.15776 7.30837 3.13742 7.29381L2.98039 7.18156L2.82336 7.29381C2.80301 7.30837 2.77592 7.28862 2.78342 7.26481L2.84167 7.08078L2.68639 6.96609C2.66629 6.95122 2.67664 6.91937 2.70164 6.91916L2.89467 6.91769L2.95573 6.73456C2.96357 6.71088 2.99714 6.71088 3.00504 6.73456Z" fill="#F5F5F5"/>
<path d="M3.74922 3.39083L3.81028 3.57396L4.00331 3.57543C4.02831 3.57564 4.03865 3.60752 4.01856 3.62236L3.86328 3.73702L3.92153 3.92105C3.92909 3.94486 3.90193 3.96461 3.88159 3.95005L3.72453 3.83783L3.5675 3.95008C3.54715 3.96464 3.52006 3.94489 3.52756 3.92108L3.58581 3.73705L3.43053 3.62239C3.41043 3.60752 3.42078 3.57564 3.44578 3.57546L3.63881 3.57399L3.69987 3.39086C3.70778 3.36711 3.74131 3.36711 3.74922 3.39083Z" fill="#F5F5F5"/>
<path d="M3.74922 4.34784L3.81028 4.53097L4.00331 4.53244C4.02831 4.53266 4.03865 4.5645 4.01856 4.57937L3.86328 4.69406L3.92153 4.87809C3.92909 4.90191 3.90193 4.92166 3.88159 4.90709L3.72453 4.79484L3.5675 4.90709C3.54715 4.92162 3.52006 4.90191 3.52756 4.87809L3.58581 4.69406L3.43053 4.57937C3.41043 4.5645 3.42078 4.53266 3.44578 4.53244L3.63881 4.53097L3.69987 4.34784C3.70778 4.32416 3.74131 4.32416 3.74922 4.34784Z" fill="#F5F5F5"/>
<path d="M3.74922 5.30686L3.81028 5.48998L4.00331 5.49145C4.02831 5.49167 4.03865 5.52351 4.01856 5.53839L3.86328 5.65307L3.92153 5.83711C3.92909 5.86092 3.90193 5.88067 3.88159 5.86611L3.72453 5.75382L3.5675 5.86607C3.54715 5.88061 3.52006 5.86089 3.52756 5.83707L3.58581 5.65304L3.43053 5.53836C3.41043 5.52348 3.42078 5.49164 3.44578 5.49142L3.63881 5.48995L3.69987 5.30682C3.70778 5.28314 3.74131 5.28314 3.74922 5.30686Z" fill="#F5F5F5"/>
<path d="M3.74922 6.26388L3.81028 6.44701L4.00331 6.44848C4.02831 6.4487 4.03865 6.48057 4.01856 6.49542L3.86328 6.6101L3.92153 6.79414C3.92909 6.81795 3.90193 6.8377 3.88159 6.82314L3.72453 6.71089L3.5675 6.82314C3.54715 6.83767 3.52006 6.81795 3.52756 6.79414L3.58581 6.6101L3.43053 6.49542C3.41043 6.4806 3.42078 6.4487 3.44578 6.44848L3.63881 6.44701L3.69987 6.26388C3.70778 6.24016 3.74131 6.24016 3.74922 6.26388Z" fill="#F5F5F5"/>
<path d="M3.74922 7.22284L3.81028 7.40597L4.00331 7.40744C4.02831 7.40766 4.03865 7.4395 4.01856 7.45437L3.86328 7.56906L3.92153 7.75309C3.92909 7.77691 3.90193 7.79666 3.88159 7.78209L3.72453 7.66984L3.5675 7.78209C3.54715 7.79662 3.52006 7.77691 3.52756 7.75309L3.58581 7.56906L3.43053 7.45437C3.41043 7.4395 3.42078 7.40766 3.44578 7.40744L3.63881 7.40597L3.69987 7.22284C3.70778 7.19916 3.74131 7.19916 3.74922 7.22284Z" fill="#F5F5F5"/>
<path d="M4.49332 3.85956L4.55438 4.04269L4.74741 4.04416C4.77241 4.04437 4.78275 4.07625 4.76266 4.09109L4.60738 4.20578L4.66563 4.38981C4.67319 4.41362 4.64604 4.43337 4.62569 4.41881L4.46866 4.30656L4.31163 4.41881C4.29129 4.43334 4.2642 4.41362 4.2717 4.38981L4.32995 4.20578L4.17467 4.09109C4.15457 4.07622 4.16492 4.04437 4.18992 4.04416L4.38295 4.04269L4.44401 3.85956C4.45191 3.83588 4.48541 3.83588 4.49332 3.85956Z" fill="#F5F5F5"/>
<path d="M4.49332 4.81857L4.55438 5.0017L4.74741 5.00316C4.77241 5.00338 4.78275 5.03526 4.76266 5.0501L4.60738 5.16479L4.66563 5.34882C4.67319 5.37263 4.64604 5.39238 4.62569 5.37782L4.46866 5.26557L4.31163 5.37782C4.29129 5.39235 4.2642 5.37266 4.2717 5.34882L4.32995 5.16479L4.17467 5.0501C4.15457 5.03529 4.16492 5.00338 4.18992 5.00316L4.38295 5.0017L4.44401 4.81857C4.45191 4.79485 4.48541 4.79485 4.49332 4.81857Z" fill="#F5F5F5"/>
<path d="M4.49332 5.7756L4.55438 5.95873L4.74741 5.9602C4.77241 5.96041 4.78275 5.99226 4.76266 6.00713L4.60738 6.12182L4.66563 6.30585C4.67319 6.32967 4.64604 6.34942 4.62569 6.33485L4.46866 6.2226L4.31163 6.33485C4.29129 6.34939 4.2642 6.32967 4.2717 6.30585L4.32995 6.12182L4.17467 6.00713C4.15457 5.99226 4.16492 5.96041 4.18992 5.9602L4.38295 5.95873L4.44401 5.7756C4.45191 5.75188 4.48541 5.75188 4.49332 5.7756Z" fill="#F5F5F5"/>
<path d="M4.49332 6.73456L4.55438 6.91769L4.74741 6.91916C4.77241 6.91937 4.78275 6.95122 4.76266 6.96609L4.60738 7.08078L4.66563 7.26481C4.67319 7.28862 4.64604 7.30837 4.62569 7.29381L4.46866 7.18156L4.31163 7.29381C4.29129 7.30837 4.2642 7.28862 4.2717 7.26481L4.32995 7.08078L4.17467 6.96609C4.15457 6.95122 4.16492 6.91937 4.18992 6.91916L4.38295 6.91769L4.44401 6.73456C4.45191 6.71088 4.48541 6.71088 4.49332 6.73456Z" fill="#F5F5F5"/>
<path d="M5.23551 3.39084L5.29657 3.57396L5.4896 3.57543C5.5146 3.57565 5.52494 3.60752 5.50485 3.62237L5.34957 3.73702L5.40782 3.92106C5.41538 3.94487 5.38823 3.96462 5.36788 3.95006L5.21085 3.83781L5.05382 3.95006C5.03348 3.96462 5.00639 3.94487 5.01389 3.92106L5.07213 3.73702L4.91685 3.62237C4.89676 3.60749 4.9071 3.57562 4.9321 3.57543L5.12513 3.57396L5.1862 3.39084C5.19404 3.36712 5.2276 3.36712 5.23551 3.39084Z" fill="#F5F5F5"/>
<path d="M5.23551 4.34784L5.29657 4.53097L5.4896 4.53244C5.5146 4.53266 5.52494 4.5645 5.50485 4.57937L5.34957 4.69406L5.40782 4.87809C5.41538 4.90191 5.38823 4.92166 5.36788 4.90709L5.21085 4.79484L5.05382 4.90709C5.03348 4.92162 5.00639 4.90191 5.01389 4.87809L5.07213 4.69406L4.91685 4.57937C4.89676 4.5645 4.9071 4.53266 4.9321 4.53244L5.12513 4.53097L5.1862 4.34784C5.19404 4.32416 5.2276 4.32416 5.23551 4.34784Z" fill="#F5F5F5"/>
<path d="M5.23551 5.30685L5.29657 5.48998L5.4896 5.49145C5.5146 5.49166 5.52494 5.52351 5.50485 5.53838L5.34957 5.65307L5.40782 5.8371C5.41538 5.86091 5.38823 5.88066 5.36788 5.8661L5.21085 5.75385L5.05382 5.8661C5.03348 5.88063 5.00639 5.86094 5.01389 5.8371L5.07213 5.65307L4.91685 5.53838C4.89676 5.52351 4.9071 5.49166 4.9321 5.49145L5.12513 5.48998L5.1862 5.30685C5.19404 5.28313 5.2276 5.28313 5.23551 5.30685Z" fill="#F5F5F5"/>
<path d="M5.23551 6.26388L5.29657 6.44701L5.4896 6.44848C5.5146 6.4487 5.52494 6.48057 5.50485 6.49542L5.34957 6.6101L5.40782 6.79414C5.41538 6.81795 5.38823 6.8377 5.36788 6.82314L5.21085 6.71089L5.05382 6.82314C5.03348 6.83767 5.00639 6.81795 5.01389 6.79414L5.07213 6.6101L4.91685 6.49542C4.89676 6.4806 4.9071 6.4487 4.9321 6.44848L5.12513 6.44701L5.1862 6.26388C5.19404 6.24016 5.2276 6.24016 5.23551 6.26388Z" fill="#F5F5F5"/>
<path d="M5.23551 7.22284L5.29657 7.40597L5.4896 7.40744C5.5146 7.40766 5.52494 7.4395 5.50485 7.45437L5.34957 7.56906L5.40782 7.75309C5.41538 7.77691 5.38823 7.79666 5.36788 7.78209L5.21085 7.66984L5.05382 7.78209C5.03348 7.79662 5.00639 7.77691 5.01389 7.75309L5.07213 7.56906L4.91685 7.45437C4.89676 7.4395 4.9071 7.40766 4.9321 7.40744L5.12513 7.40597L5.1862 7.22284C5.19404 7.19916 5.2276 7.19916 5.23551 7.22284Z" fill="#F5F5F5"/>
<path d="M5.97965 3.85956L6.04071 4.04269L6.23374 4.04416C6.25874 4.04437 6.26909 4.07625 6.24899 4.09109L6.09371 4.20578L6.15196 4.38981C6.15952 4.41362 6.13237 4.43337 6.11202 4.41881L5.95499 4.30656L5.79796 4.41881C5.77762 4.43334 5.75053 4.41362 5.75803 4.38981L5.81628 4.20578L5.661 4.09109C5.6409 4.07622 5.65125 4.04437 5.67625 4.04416L5.86928 4.04269L5.93034 3.85956C5.93821 3.83588 5.97174 3.83588 5.97965 3.85956Z" fill="#F5F5F5"/>
<path d="M5.97965 4.81857L6.04071 5.0017L6.23374 5.00316C6.25874 5.00338 6.26909 5.03526 6.24899 5.0501L6.09371 5.16479L6.15196 5.34882C6.15952 5.37263 6.13237 5.39238 6.11202 5.37782L5.95499 5.26557L5.79796 5.37782C5.77762 5.39235 5.75053 5.37266 5.75803 5.34882L5.81628 5.16479L5.661 5.0501C5.6409 5.03529 5.65125 5.00338 5.67625 5.00316L5.86928 5.0017L5.93034 4.81857C5.93821 4.79485 5.97174 4.79485 5.97965 4.81857Z" fill="#F5F5F5"/>
<path d="M5.97965 5.7756L6.04071 5.95873L6.23374 5.9602C6.25874 5.96041 6.26909 5.99226 6.24899 6.00713L6.09371 6.12182L6.15196 6.30585C6.15952 6.32967 6.13237 6.34942 6.11202 6.33485L5.95499 6.2226L5.79796 6.33485C5.77762 6.34939 5.75053 6.32967 5.75803 6.30585L5.81628 6.12182L5.661 6.00713C5.6409 5.99226 5.65125 5.96041 5.67625 5.9602L5.86928 5.95873L5.93034 5.7756C5.93821 5.75188 5.97174 5.75188 5.97965 5.7756Z" fill="#F5F5F5"/>
<path d="M5.97965 6.73456L6.04071 6.91769L6.23374 6.91916C6.25874 6.91937 6.26909 6.95122 6.24899 6.96609L6.09371 7.08078L6.15196 7.26481C6.15952 7.28862 6.13237 7.30837 6.11202 7.29381L5.95499 7.18156L5.79796 7.29381C5.77762 7.30837 5.75053 7.28862 5.75803 7.26481L5.81628 7.08078L5.661 6.96609C5.6409 6.95122 5.65125 6.91937 5.67625 6.91916L5.86928 6.91769L5.93034 6.73456C5.93821 6.71088 5.97174 6.71088 5.97965 6.73456Z" fill="#F5F5F5"/>
<path d="M6.72379 3.39084L6.78486 3.57396L6.97789 3.57543C7.00289 3.57565 7.01323 3.60752 6.99314 3.62237L6.83786 3.73702L6.89611 3.92106C6.90367 3.94487 6.87651 3.96462 6.85617 3.95006L6.69914 3.83781L6.54211 3.95006C6.52176 3.96462 6.49467 3.94487 6.50217 3.92106L6.56042 3.73702L6.40514 3.62237C6.38504 3.60749 6.39539 3.57562 6.42039 3.57543L6.61342 3.57396L6.67448 3.39084C6.68236 3.36712 6.71586 3.36712 6.72379 3.39084Z" fill="#F5F5F5"/>
<path d="M6.72379 4.34784L6.78486 4.53097L6.97789 4.53244C7.00289 4.53266 7.01323 4.5645 6.99314 4.57937L6.83786 4.69406L6.89611 4.87809C6.90367 4.90191 6.87651 4.92166 6.85617 4.90709L6.69914 4.79484L6.54211 4.90709C6.52176 4.92162 6.49467 4.90191 6.50217 4.87809L6.56042 4.69406L6.40514 4.57937C6.38504 4.5645 6.39539 4.53266 6.42039 4.53244L6.61342 4.53097L6.67448 4.34784C6.68236 4.32416 6.71586 4.32416 6.72379 4.34784Z" fill="#F5F5F5"/>
<path d="M6.72379 5.30685L6.78486 5.48998L6.97789 5.49145C7.00289 5.49166 7.01323 5.52351 6.99314 5.53838L6.83786 5.65307L6.89611 5.8371C6.90367 5.86091 6.87651 5.88066 6.85617 5.8661L6.69914 5.75385L6.54211 5.8661C6.52176 5.88063 6.49467 5.86094 6.50217 5.8371L6.56042 5.65307L6.40514 5.53838C6.38504 5.52351 6.39539 5.49166 6.42039 5.49145L6.61342 5.48998L6.67448 5.30685C6.68236 5.28313 6.71586 5.28313 6.72379 5.30685Z" fill="#F5F5F5"/>
<path d="M6.72379 6.26388L6.78486 6.44701L6.97789 6.44848C7.00289 6.4487 7.01323 6.48057 6.99314 6.49542L6.83786 6.6101L6.89611 6.79414C6.90367 6.81795 6.87651 6.8377 6.85617 6.82314L6.69914 6.71089L6.54211 6.82314C6.52176 6.83767 6.49467 6.81795 6.50217 6.79414L6.56042 6.6101L6.40514 6.49542C6.38504 6.4806 6.39539 6.4487 6.42039 6.44848L6.61342 6.44701L6.67448 6.26388C6.68236 6.24016 6.71586 6.24016 6.72379 6.26388Z" fill="#F5F5F5"/>
<path d="M6.72379 7.22284L6.78486 7.40597L6.97789 7.40744C7.00289 7.40766 7.01323 7.4395 6.99314 7.45437L6.83786 7.56906L6.89611 7.75309C6.90367 7.77691 6.87651 7.79666 6.85617 7.78209L6.69914 7.66984L6.54211 7.78209C6.52176 7.79662 6.49467 7.77691 6.50217 7.75309L6.56042 7.56906L6.40514 7.45437C6.38504 7.4395 6.39539 7.40766 6.42039 7.40744L6.61342 7.40597L6.67448 7.22284C6.68236 7.19916 6.71586 7.19916 6.72379 7.22284Z" fill="#F5F5F5"/>
</svg>
