<svg width="180" height="48" viewBox="0 0 180 48" fill="none" xmlns="http://www.w3.org/2000/svg">
<path d="M55.9754 23.0001C56.0026 23.5518 56.4477 24 57 24H59C59.5523 24 60.0021 23.5509 59.9795 22.9991C59.4548 10.2084 48.9196 0 36 0C23.0804 0 12.5452 10.2084 12.0205 22.9991C11.9979 23.5509 12.4477 24 13 24L15 24C15.5523 24 15.9974 23.5518 16.0246 23.0001C16.5455 12.419 25.2896 4 36 4C46.7104 4 55.4545 12.419 55.9754 23.0001Z" fill="white"/>
<rect y="28" width="72" height="4" rx="1" fill="white"/>
<rect x="12" y="36" width="48" height="4" rx="1" fill="white"/>
<rect x="28" y="44" width="16" height="4" rx="1" fill="white"/>
<path d="M110.23 24C110.23 26.6185 109.661 28.9907 108.523 31.1167C107.411 33.2426 105.858 34.9278 103.867 36.1722C101.875 37.3907 99.6243 38 97.1151 38C94.6059 38 92.3554 37.3907 90.3635 36.1722C88.3717 34.9278 86.8067 33.2426 85.6685 31.1167C84.5562 28.9907 84 26.6185 84 24C84 21.3815 84.5562 19.0093 85.6685 16.8833C86.8067 14.7574 88.3717 13.0852 90.3635 11.8667C92.3554 10.6222 94.6059 10 97.1151 10C99.6243 10 101.875 10.6222 103.867 11.8667C105.858 13.0852 107.411 14.7574 108.523 16.8833C109.661 19.0093 110.23 21.3815 110.23 24ZM106.234 24C106.234 22.0556 105.846 20.3056 105.069 18.75C104.293 17.1685 103.207 15.937 101.81 15.0556C100.439 14.1481 98.8741 13.6944 97.1151 13.6944C95.356 13.6944 93.7781 14.1352 92.3812 15.0167C91.0102 15.8981 89.9367 17.1296 89.1607 18.7111C88.3846 20.2667 87.9966 22.0296 87.9966 24C87.9966 25.9444 88.3846 27.7074 89.1607 29.2889C89.9367 30.8444 91.0102 32.0759 92.3812 32.9833C93.7781 33.8648 95.356 34.3056 97.1151 34.3056C98.8741 34.3056 100.439 33.8648 101.81 32.9833C103.207 32.0759 104.293 30.8444 105.069 29.2889C105.846 27.7074 106.234 25.9444 106.234 24Z" fill="white"/>
<path d="M131.133 16.9611C131.677 16.9611 132.116 17.1426 132.453 17.5056C132.815 17.8426 132.996 18.2963 132.996 18.8667V35.7444C132.996 36.263 132.815 36.7037 132.453 37.0667C132.116 37.4296 131.677 37.6111 131.133 37.6111C130.59 37.6111 130.15 37.4426 129.814 37.1056C129.478 36.7426 129.31 36.2889 129.31 35.7444V34.7333C128.637 35.6407 127.719 36.4185 126.555 37.0667C125.391 37.6889 124.136 38 122.791 38C121.032 38 119.428 37.5463 117.98 36.6389C116.557 35.7315 115.432 34.4741 114.604 32.8667C113.802 31.2333 113.401 29.4056 113.401 27.3833C113.401 25.3611 113.802 23.5463 114.604 21.9389C115.432 20.3056 116.557 19.0352 117.98 18.1278C119.402 17.2204 120.967 16.7667 122.675 16.7667C124.046 16.7667 125.313 17.0519 126.477 17.6222C127.667 18.1926 128.611 18.9185 129.31 19.8V18.8667C129.31 18.3222 129.478 17.8685 129.814 17.5056C130.15 17.1426 130.59 16.9611 131.133 16.9611ZM123.218 34.5778C124.434 34.5778 125.507 34.2667 126.438 33.6444C127.396 33.0222 128.133 32.1667 128.65 31.0778C129.193 29.9889 129.465 28.7574 129.465 27.3833C129.465 26.0352 129.193 24.8167 128.65 23.7278C128.133 22.6389 127.396 21.7833 126.438 21.1611C125.507 20.513 124.434 20.1889 123.218 20.1889C122.002 20.1889 120.916 20.5 119.959 21.1222C119.027 21.7444 118.29 22.6 117.747 23.6889C117.229 24.7778 116.971 26.0093 116.971 27.3833C116.971 28.7574 117.229 29.9889 117.747 31.0778C118.29 32.1667 119.027 33.0222 119.959 33.6444C120.916 34.2667 122.002 34.5778 123.218 34.5778Z" fill="white"/>
<path d="M137.313 34.4222C137.08 34.0593 136.964 33.7093 136.964 33.3722C136.964 32.8537 137.235 32.413 137.779 32.05C138.037 31.8685 138.335 31.7778 138.671 31.7778C139.137 31.7778 139.564 31.9722 139.952 32.3611C140.728 33.2426 141.555 33.9037 142.435 34.3444C143.34 34.7852 144.414 35.0056 145.655 35.0056C146.638 34.9796 147.505 34.7593 148.255 34.3444C149.005 33.9037 149.38 33.2037 149.38 32.2444C149.38 31.363 148.992 30.6889 148.216 30.2222C147.466 29.7556 146.354 29.3278 144.879 28.9389C143.431 28.55 142.228 28.1481 141.271 27.7333C140.314 27.2926 139.499 26.6704 138.826 25.8667C138.18 25.037 137.856 23.9611 137.856 22.6389C137.856 21.4722 138.18 20.4481 138.826 19.5667C139.499 18.6852 140.378 17.9981 141.465 17.5056C142.577 17.013 143.78 16.7667 145.073 16.7667C146.315 16.7667 147.544 17 148.76 17.4667C150.001 17.9333 151.01 18.6463 151.786 19.6056C152.097 19.9685 152.252 20.3444 152.252 20.7333C152.252 21.1481 152.045 21.55 151.631 21.9389C151.372 22.1722 151.049 22.2889 150.661 22.2889C150.195 22.2889 149.82 22.1333 149.536 21.8222C148.992 21.2 148.32 20.7204 147.518 20.3833C146.742 20.0463 145.875 19.8778 144.918 19.8778C143.935 19.8778 143.094 20.0852 142.396 20.5C141.723 20.8889 141.387 21.563 141.387 22.5222C141.413 23.4296 141.801 24.1037 142.551 24.5444C143.327 24.9852 144.504 25.413 146.082 25.8278C147.453 26.1907 148.591 26.5796 149.497 26.9944C150.402 27.4093 151.165 28.0315 151.786 28.8611C152.407 29.6648 152.717 30.7278 152.717 32.05C152.717 33.2685 152.368 34.3315 151.67 35.2389C150.971 36.1204 150.053 36.8074 148.915 37.3C147.802 37.7667 146.613 38 145.345 38C143.715 38 142.202 37.7148 140.805 37.1444C139.434 36.5741 138.27 35.6667 137.313 34.4222Z" fill="white"/>
<path d="M160.461 35.7444C160.461 36.263 160.28 36.7037 159.918 37.0667C159.581 37.4296 159.142 37.6111 158.598 37.6111C158.081 37.6111 157.641 37.4296 157.279 37.0667C156.943 36.7037 156.775 36.263 156.775 35.7444V18.9056C156.775 18.387 156.943 17.9463 157.279 17.5833C157.641 17.2204 158.081 17.0389 158.598 17.0389C159.142 17.0389 159.581 17.2204 159.918 17.5833C160.28 17.9463 160.461 18.387 160.461 18.9056V35.7444ZM158.598 14.4722C157.848 14.4722 157.305 14.3426 156.969 14.0833C156.658 13.7981 156.503 13.3574 156.503 12.7611V12.1389C156.503 11.5167 156.671 11.0759 157.007 10.8167C157.37 10.5574 157.913 10.4278 158.637 10.4278C159.361 10.4278 159.879 10.5704 160.189 10.8556C160.525 11.1148 160.694 11.5426 160.694 12.1389V12.7611C160.694 13.3833 160.525 13.8241 160.189 14.0833C159.853 14.3426 159.323 14.4722 158.598 14.4722Z" fill="white"/>
<path d="M164.596 34.4222C164.363 34.0593 164.246 33.7093 164.246 33.3722C164.246 32.8537 164.518 32.413 165.061 32.05C165.32 31.8685 165.617 31.7778 165.954 31.7778C166.419 31.7778 166.846 31.9722 167.234 32.3611C168.01 33.2426 168.838 33.9037 169.717 34.3444C170.623 34.7852 171.696 35.0056 172.938 35.0056C173.921 34.9796 174.788 34.7593 175.538 34.3444C176.288 33.9037 176.663 33.2037 176.663 32.2444C176.663 31.363 176.275 30.6889 175.499 30.2222C174.749 29.7556 173.636 29.3278 172.162 28.9389C170.713 28.55 169.511 28.1481 168.553 27.7333C167.596 27.2926 166.781 26.6704 166.109 25.8667C165.462 25.037 165.139 23.9611 165.139 22.6389C165.139 21.4722 165.462 20.4481 166.109 19.5667C166.781 18.6852 167.661 17.9981 168.747 17.5056C169.86 17.013 171.063 16.7667 172.356 16.7667C173.598 16.7667 174.826 17 176.042 17.4667C177.284 17.9333 178.293 18.6463 179.069 19.6056C179.379 19.9685 179.534 20.3444 179.534 20.7333C179.534 21.1481 179.327 21.55 178.914 21.9389C178.655 22.1722 178.332 22.2889 177.943 22.2889C177.478 22.2889 177.103 22.1333 176.818 21.8222C176.275 21.2 175.602 20.7204 174.801 20.3833C174.024 20.0463 173.158 19.8778 172.201 19.8778C171.218 19.8778 170.377 20.0852 169.679 20.5C169.006 20.8889 168.67 21.563 168.67 22.5222C168.696 23.4296 169.084 24.1037 169.834 24.5444C170.61 24.9852 171.787 25.413 173.365 25.8278C174.736 26.1907 175.874 26.5796 176.779 26.9944C177.685 27.4093 178.448 28.0315 179.069 28.8611C179.69 29.6648 180 30.7278 180 32.05C180 33.2685 179.651 34.3315 178.952 35.2389C178.254 36.1204 177.336 36.8074 176.197 37.3C175.085 37.7667 173.895 38 172.628 38C170.998 38 169.485 37.7148 168.088 37.1444C166.717 36.5741 165.553 35.6667 164.596 34.4222Z" fill="white"/>
</svg>
