<svg width="48" height="32" viewBox="0 0 48 32" fill="none" xmlns="http://www.w3.org/2000/svg">
<path d="M37.2964 15C37.3372 15.5507 37.781 16 38.3333 16H39C39.5523 16 40.0032 15.5511 39.9692 14.9998C39.453 6.62918 32.5006 0 24 0C15.4994 0 8.54704 6.62917 8.03075 14.9998C7.99675 15.5511 8.44772 16 9 16H9.66667C10.219 16 10.6628 15.5507 10.7036 15C11.215 8.10324 16.9726 2.66667 24 2.66667C31.0274 2.66667 36.785 8.10324 37.2964 15Z" fill="white"/>
<rect y="18.6665" width="48" height="2.66667" rx="1" fill="white"/>
<rect x="8" y="24" width="32" height="2.66667" rx="1" fill="white"/>
<rect x="18.666" y="29.3335" width="10.6667" height="2.66667" rx="1" fill="white"/>
</svg>
