<svg width="36" height="24" viewBox="0 0 36 24" fill="none" xmlns="http://www.w3.org/2000/svg">
<path fill-rule="evenodd" clip-rule="evenodd" d="M30.2697 7.66372C29.0755 5.83947 28.5 3.1761 28.5 0H25.5C25.5 3.1761 24.9245 5.83947 23.7303 7.66372C22.5998 9.39059 20.8338 10.5 18 10.5C15.1662 10.5 13.4002 9.39059 12.2697 7.66372C11.0755 5.83947 10.5 3.1761 10.5 0H7.5C7.5 3.1761 6.92448 5.83947 5.73028 7.66372C4.59982 9.39059 2.83379 10.5 0 10.5V13.5C3.28739 13.5 5.77907 12.3159 7.5 10.2974V15H0V18H7.5V24H10.5V18H25.5V24H28.5V18H36V15H28.5V10.2974C30.2209 12.3159 32.7126 13.5 36 13.5V10.5C33.1662 10.5 31.4002 9.39059 30.2697 7.66372ZM10.5 15V10.2974C12.2209 12.3159 14.7126 13.5 18 13.5C21.2874 13.5 23.7791 12.3159 25.5 10.2974V15H10.5Z" fill="#312E81"/>
</svg>
