<svg width="80" height="21" viewBox="0 0 801 212" fill="none" xmlns="http://www.w3.org/2000/svg">
<path d="M100.427 173.978C101.745 175.297 103.533 176.04 105.397 176.043C109.2 176.043 112.42 172.812 112.42 168.999V42.5691C112.42 40.7043 111.68 38.9157 110.362 37.5961C109.045 36.2765 107.257 35.5338 105.392 35.5311C101.443 35.5311 98.3696 38.7564 98.3696 42.5691V169.005C98.3696 170.869 99.1097 172.658 100.427 173.978Z" fill="#312E81"/>
<path d="M42.4456 112.832H76.1165L76.1215 112.827C77.9881 112.827 79.7783 112.086 81.0981 110.766C82.418 109.446 83.1595 107.656 83.1595 105.789C83.1595 103.923 82.418 102.133 81.0981 100.813C79.7783 99.4929 77.9881 98.7514 76.1215 98.7514H42.4506C38.4962 98.7514 35.4228 101.83 35.4228 105.794C35.4228 107.658 36.1622 109.446 37.4788 110.766C38.7954 112.085 40.5816 112.828 42.4456 112.832Z" fill="#312E81"/>
<path d="M134.673 112.832H168.486C172.294 112.832 175.367 109.749 175.367 105.789C175.367 103.925 174.628 102.138 173.311 100.818C171.994 99.4987 170.208 98.7554 168.344 98.7514H134.673C130.719 98.7514 127.646 101.83 127.646 105.794C127.646 107.659 128.386 109.448 129.703 110.767C131.021 112.087 132.809 112.83 134.673 112.832Z" fill="#312E81"/>
<path fill-rule="evenodd" clip-rule="evenodd" d="M0 105.789C0 164.017 47.281 211.389 105.397 211.389C163.514 211.389 210.795 164.017 210.795 105.789C210.795 47.5616 163.514 0.189453 105.397 0.189453C47.281 0.189453 0 47.5616 0 105.789ZM14.0557 105.789C14.0557 55.3338 55.043 14.2705 105.397 14.2705C155.757 14.2705 196.739 55.3338 196.739 105.789C196.739 156.245 155.757 197.308 105.397 197.308C55.043 197.308 14.0557 156.245 14.0557 105.789Z" fill="#312E81"/>
<path d="M280.623 64.4273V77.04H301.114V147.293H315.463V77.04H336.101V64.4273H280.623Z" fill="#312E81"/>
<path d="M365.524 99.6273C367.782 99.6234 370.035 99.8199 372.258 100.215V87.4552L372.162 87.4455C370.73 87.3017 369.283 87.1564 367.139 87.1564C359.377 87.1564 353.519 92.2957 350.886 97.283H350.592V89.0704H337.271V147.146H350.891V117.815C350.891 105.643 356.304 99.6273 365.524 99.6273Z" fill="#312E81"/>
<path fill-rule="evenodd" clip-rule="evenodd" d="M437.549 147.146V89.0653H424.375V96.9843H424.081C420.567 92.4375 414.709 87.3083 405.048 87.3083C389.241 87.3083 376.213 99.6273 376.213 118.108C376.213 138.934 390.997 149.349 404.025 149.349C413.686 149.349 419.985 144.802 423.934 139.815H424.228V147.146H437.549ZM424.81 118.397C424.81 129.546 416.466 137.324 407.539 137.324C395.534 137.324 389.97 127.784 389.97 118.108C389.97 108.574 395.681 98.8932 407.686 98.8932C417.2 98.8932 424.81 106.665 424.81 118.397Z" fill="#312E81"/>
<path d="M466.684 89.0653H453.215L453.21 147.293H466.825V116.493C466.825 105.202 472.678 99.1868 481.17 99.1868C488.932 99.1868 493.61 104.463 493.61 114.437V147.146H507.23V113.708C507.23 95.0805 496.689 87.1615 484.684 87.1615C478.243 87.1615 471.509 89.7995 466.972 96.402H466.684V89.0653Z" fill="#312E81"/>
<path d="M540.603 96.9894C544.557 96.9894 547.777 99.7742 548.365 104.027L560.658 104.022C559.195 94.4932 552.608 87.1615 540.162 87.1615C527.868 87.1615 520.4 94.1995 520.4 103.734C520.4 112.827 525.965 118.255 536.8 121.774C546.461 124.999 548.947 127.789 548.947 132.184C548.947 136.149 546.02 139.374 540.896 139.374C534.896 139.374 531.965 135.708 531.382 130.868H518.79C519.818 141.718 526.699 149.349 540.603 149.349C553.924 149.349 561.975 141.865 561.975 131.162C561.975 122.949 557.585 116.493 545.139 112.534C535.043 109.162 533.286 106.665 533.286 103.146C533.286 99.921 535.919 96.9894 540.603 96.9894Z" fill="#312E81"/>
<path d="M588.911 62.3716H573.833V76.159H588.911V62.3716Z" fill="#312E81"/>
<path d="M588.177 89.0653H574.567V147.293H588.177V89.0653Z" fill="#312E81"/>
<path d="M622.43 96.9894C626.385 96.9894 629.605 99.7742 630.192 104.027L642.486 104.022C641.023 94.4932 634.435 87.1615 621.995 87.1615C609.696 87.1615 602.233 94.1995 602.233 103.734C602.233 112.827 607.792 118.255 618.628 121.774C628.289 124.999 630.775 127.789 630.775 132.184C630.775 136.149 627.848 139.374 622.724 139.374C616.724 139.374 613.797 135.708 613.21 130.868H600.623C601.646 141.718 608.527 149.349 622.43 149.349C635.752 149.349 643.803 141.865 643.803 131.162C643.803 122.949 639.413 116.493 626.972 112.534C616.871 109.162 615.114 106.665 615.114 103.146C615.114 99.921 617.747 96.9894 622.43 96.9894Z" fill="#312E81"/>
<path d="M656.977 89.0653H649.661V100.508H656.977V127.202C656.977 139.08 660.785 147.88 675.276 147.88C678.643 147.88 682.451 147.44 685.524 146.559V135.562C683.473 136.149 680.841 136.589 678.496 136.589C672.937 136.589 670.446 134.387 670.446 126.468V100.508H685.084V89.0653H670.592V70.4425H656.977V89.0653Z" fill="#312E81"/>
<path fill-rule="evenodd" clip-rule="evenodd" d="M753.154 118.108C753.154 100.508 740.273 87.1615 722.122 87.1615C704.557 87.1615 691.089 100.068 691.089 118.108C691.089 135.708 704.41 149.349 722.122 149.349C740.127 149.349 753.154 135.268 753.154 118.108ZM739.392 118.108C739.392 128.959 732.37 137.172 722.122 137.172C712.754 137.172 704.846 129.253 704.846 118.108C704.846 107.253 711.727 99.1868 722.122 99.1868C732.805 99.1868 739.392 107.84 739.392 118.108Z" fill="#312E81"/>
<path d="M778.633 117.815C778.633 105.643 784.046 99.6273 793.271 99.6273C795.529 99.6235 797.782 99.8201 800.005 100.215V87.4552L799.899 87.4445C798.466 87.3011 797.02 87.1564 794.881 87.1564C787.119 87.1564 781.266 92.2957 778.633 97.283H778.339V89.0704H765.018V147.146H778.633V117.815Z" fill="#312E81"/>
</svg>
