<svg width="36" height="36" viewBox="0 0 36 36" fill="none" xmlns="http://www.w3.org/2000/svg">
<path fill-rule="evenodd" clip-rule="evenodd" d="M29.773 9.20475C29.773 6.19213 27.3514 3.7502 24.3636 3.75C21.3758 3.7502 18.9535 6.19213 18.9535 9.20475C18.9509 10.6202 19.4981 11.9814 20.4797 13.0013L19.0922 15.108L14.6312 8.21625C14.5533 8.09608 14.4457 7.99808 14.3188 7.93179C14.1919 7.86549 14.05 7.83315 13.9068 7.83791C13.7637 7.84266 13.6243 7.88435 13.502 7.95893C13.3798 8.0335 13.2789 8.13842 13.2092 8.2635L5.44445 22.185H2.45945C1.9997 22.185 1.62695 22.56 1.62695 23.0235C1.62695 23.487 1.9997 23.862 2.4587 23.862H30.0557C30.0642 23.8622 30.0727 23.8622 30.0812 23.862H33.5402C34 23.862 34.3727 23.487 34.3727 23.0235C34.3727 22.56 34 22.185 33.5402 22.185H30.5552L26.1947 14.3385C27.2459 13.9535 28.1532 13.2543 28.7933 12.3359C29.4335 11.4174 29.7755 10.3243 29.773 9.20475ZM23.6725 22.185L20.0815 16.6373L23.0552 12.1215L28.648 22.185H23.6725ZM13.9862 10.29L21.6865 22.185H7.35245L13.9862 10.29ZM27.4393 11.5396C27.9436 10.8659 28.2152 10.0464 28.213 9.20475C28.213 7.0605 26.4895 5.32275 24.3632 5.32275C22.237 5.32275 20.5127 7.0605 20.5127 9.20475C20.511 10.0932 20.8138 10.9553 21.3707 11.6475L22.4222 10.05C22.5008 9.93083 22.6088 9.83393 22.7357 9.76866C22.8626 9.70339 23.0043 9.67196 23.1469 9.67738C23.2896 9.68281 23.4284 9.72492 23.55 9.79965C23.6716 9.87438 23.7719 9.9792 23.8412 10.104L25.417 12.9397C26.2251 12.7048 26.9349 12.2133 27.4393 11.5396Z" fill="white"/>
<path d="M8.01095 27.2175C8.01095 26.7547 8.38295 26.3797 8.8412 26.3797H27.1569C27.6152 26.3797 27.9872 26.7547 27.9872 27.2175C27.9872 27.6795 27.6152 28.0545 27.1562 28.0545H8.8412C8.38295 28.0545 8.01095 27.6802 8.01095 27.2175Z" fill="white"/>
<path d="M14.3935 31.4115C14.3935 30.948 14.7662 30.5722 15.2259 30.5722H20.7722C21.2319 30.5722 21.6047 30.948 21.6047 31.4115C21.6047 31.875 21.2319 32.25 20.7729 32.25H15.2259C14.7662 32.25 14.3935 31.8742 14.3935 31.4115Z" fill="white"/>
</svg>
